<svg xmlns="http://www.w3.org/2000/svg" width="29" height="28" fill="none"><path fill="#000" d="M.5 0h2.15v2.15H.5zM.5 2.15h2.15V4.3H.5zM.5 4.31h2.15v2.15H.5zM.5 6.46h2.15v2.15H.5zM.5 8.62h2.15v2.15H.5zM.5 10.77h2.15v2.15H.5zM.5 12.92h2.15v2.15H.5zM.5 15.08h2.15v2.15H.5zM.5 17.23h2.15v2.15H.5zM.5 19.38h2.15v2.15H.5zM.5 21.54h2.15v2.15H.5zM.5 23.69h2.15v2.15H.5zM.5 25.85h2.15V28H.5zM24.2 0v2.15h-2.16V0zM22.04 0v2.15h-2.15V0zM19.88 0v2.15h-2.15V0zM17.73 0v2.15h-2.15V0zM15.58 0v2.15h-2.15V0zM13.42 0v2.15h-2.15V0zM11.27 0v2.15H9.12V0zM9.12 0v2.15H6.97V0zM6.96 0v2.15H4.81V0zM4.8 0v2.15H2.67V0zM26.35 2.16V4.3H24.2V2.16zM6.96 4.3v2.16H4.8V4.3zM6.96 2.15V4.3H4.81V2.15zM6.96 6.46v2.15H4.81V6.46zM22.04 4.3v2.16h-2.15V4.3zM22.04 2.15V4.3H19.9V2.15zM22.04 6.46v2.15H19.9V6.46zM17.73 4.3v2.16h-2.15V4.3zM17.73 2.15V4.3h-2.15V2.15zM17.73 6.46v2.15h-2.15V6.46zM22.03 8.62v2.15h-2.15V8.62zM19.88 8.61v2.15h-2.15V8.61zM17.73 8.61v2.15h-2.15V8.61zM15.57 8.62v2.15h-2.15V8.62zM13.42 8.61v2.15h-2.15V8.61zM11.26 8.62v2.15H9.11V8.62zM9.11 8.62v2.15H6.96V8.62zM6.96 8.61v2.15H4.8V8.61zM24.19 15.07v2.15h-2.15v-2.15zM22.04 15.08v2.15h-2.15v-2.15zM19.88 15.07v2.15h-2.15v-2.15zM17.73 15.08v2.15h-2.15v-2.15zM15.57 15.08v2.15h-2.15v-2.15zM13.42 15.07v2.15h-2.15v-2.15zM11.27 15.08v2.15H9.12v-2.15zM9.11 15.08v2.15H6.96v-2.15zM6.96 15.08v2.15H4.8v-2.15zM24.2 17.23v2.15h-2.16v-2.15zM6.96 17.23v2.15H4.81v-2.15zM24.2 19.38v2.15h-2.15v-2.15zM6.97 19.38v2.15H4.82v-2.15zM24.2 21.54v2.15h-2.16v-2.15zM6.96 21.54v2.15H4.8v-2.15zM6.96 23.7v2.14H4.81V23.7zM24.2 23.69v2.15h-2.15v-2.15zM26.34 25.85V28H24.2v-2.15zM24.19 25.84V28h-2.15v-2.15zM22.04 25.85V28h-2.15v-2.15zM19.88 25.84V28h-2.15v-2.15zM17.73 25.85V28h-2.15v-2.15zM15.57 25.85V28h-2.15v-2.15zM13.42 25.84V28h-2.15v-2.15zM11.27 25.85V28H9.12v-2.15zM9.11 25.85V28H6.96v-2.15zM6.96 25.85V28H4.8v-2.15zM4.8 25.85V28H2.65v-2.15zM28.5 28h-2.15v-2.15h2.15zM28.5 25.84h-2.15V23.7h2.15zM28.5 23.7h-2.15v-2.16h2.15zM28.5 21.54h-2.15v-2.15h2.15zM28.5 19.39h-2.15v-2.15h2.15zM28.5 17.23h-2.15v-2.15h2.15zM28.5 15.07h-2.15v-2.15h2.15z"/><path fill="#000" d="M28.5 12.93h-2.15v-2.15h2.15zM28.5 10.77h-2.15V8.62h2.15zM28.5 8.61h-2.15V6.46h2.15zM28.5 6.46h-2.15V4.31h2.15z"/></svg>